<?xml version="1.0" encoding="UTF-8"?>
<svg version="1.1" xmlns="http://www.w3.org/2000/svg" width="42" height="40">
<path d="M0 0 C13.86 0 27.72 0 42 0 C42 13.2 42 26.4 42 40 C28.14 40 14.28 40 0 40 C0 26.8 0 13.6 0 0 Z " fill="#877542" transform="translate(0,0)"/>
<path d="M0 0 C1.65 0 3.3 0 5 0 C7.37113483 4.96284034 9.43174347 9.45949887 10 15 C8.68 15 7.36 15 6 15 C6 14.01 6 13.02 6 12 C4.02 12 2.04 12 0 12 C0 12.99 0 13.98 0 15 C-1.32 15 -2.64 15 -4 15 C-3.52229477 13.06213915 -3.04278429 11.12472326 -2.5625 9.1875 C-2.29566406 8.10855469 -2.02882813 7.02960937 -1.75390625 5.91796875 C-1.23922588 3.9259157 -0.65062825 1.95188476 0 0 Z " fill="#F7F4EF" transform="translate(24,11)"/>
<path d="M0 0 C0.33 1.32 0.66 2.64 1 4 C-1.38564077 3.42415568 -3.66682784 2.77772405 -6 2 C-6 2.99 -6 3.98 -6 5 C-5.030625 5.144375 -4.06125 5.28875 -3.0625 5.4375 C0 6 0 6 1 7 C1.04080783 8.99958364 1.04254356 11.00045254 1 13 C-2.04983996 14.52491998 -4.6423369 14.23562548 -8 14 C-9.9375 12.625 -9.9375 12.625 -11 11 C-11 10.34 -11 9.68 -11 9 C-9.68 9 -8.36 9 -7 9 C-7 9.66 -7 10.32 -7 11 C-5.35 11 -3.7 11 -2 11 C-2 10.34 -2 9.68 -2 9 C-3.134375 8.690625 -4.26875 8.38125 -5.4375 8.0625 C-9 7 -9 7 -10 6 C-10.25 3.5625 -10.25 3.5625 -10 1 C-6.1496895 -1.56687367 -4.41430237 -0.83288724 0 0 Z " fill="#F0F0EB" transform="translate(18,12)"/>
<path d="M0 0 C0.0825 0.61875 0.165 1.2375 0.25 1.875 C0.81258459 4.18437567 0.81258459 4.18437567 3.0625 5.25 C3.701875 5.4975 4.34125 5.745 5 6 C3.35 6 1.7 6 0 6 C0 6.99 0 7.98 0 9 C-1.32 9 -2.64 9 -4 9 C-2.25 2.25 -2.25 2.25 0 0 Z " fill="#F6F3EF" transform="translate(24,17)"/>
<path d="M0 0 C1.65 0 3.3 0 5 0 C5 1.98 5 3.96 5 6 C4.01 6 3.02 6 2 6 C1.67 5.34 1.34 4.68 1 4 C0.01 4.495 0.01 4.495 -1 5 C-0.67 3.35 -0.34 1.7 0 0 Z " fill="#D8D0BE" transform="translate(23,14)"/>
<path d="M0 0 C1.65 0 3.3 0 5 0 C6.06775224 1.96466413 7.06553465 3.96855359 8 6 C7.67 6.66 7.34 7.32 7 8 C6.67 6.68 6.34 5.36 6 4 C4.02 4 2.04 4 0 4 C0 2.68 0 1.36 0 0 Z " fill="#E8E3D9" transform="translate(24,11)"/>
</svg>
